<?xml version="1.0" encoding="UTF-8"?>
<!DOCTYPE svg PUBLIC "-//W3C//DTD SVG 1.1//EN" "http://www.w3.org/Graphics/SVG/1.1/DTD/svg11.dtd">
<svg xmlns="http://www.w3.org/2000/svg" version="1.1" width="512px" height="512px" style="shape-rendering:geometricPrecision; text-rendering:geometricPrecision; image-rendering:optimizeQuality; fill-rule:evenodd; clip-rule:evenodd" xmlns:xlink="http://www.w3.org/1999/xlink">
<g><path style="opacity:1" fill="#61a8de" d="M -0.5,-0.5 C 170.167,-0.5 340.833,-0.5 511.5,-0.5C 511.5,170.167 511.5,340.833 511.5,511.5C 340.833,511.5 170.167,511.5 -0.5,511.5C -0.5,340.833 -0.5,170.167 -0.5,-0.5 Z"/></g>
<g><path style="opacity:1" fill="#fefefe" d="M 368.5,144.5 C 376.808,142.459 382.974,145.126 387,152.5C 387.667,155.5 387.667,158.5 387,161.5C 371.839,233.808 356.839,306.141 342,378.5C 337.936,386.61 331.436,389.443 322.5,387C 299.249,369.461 275.749,352.295 252,335.5C 239.9,347.6 227.733,359.767 215.5,372C 207.789,375.468 201.956,373.634 198,366.5C 189.668,340.178 181.334,313.845 173,287.5C 171.829,286.107 170.329,285.273 168.5,285C 147.833,279 127.167,273 106.5,267C 100.066,264.706 97.5662,260.206 99,253.5C 100.563,250.272 103.063,248.105 106.5,247C 194.051,213.1 281.384,178.933 368.5,144.5 Z"/></g>
<g><path style="opacity:1" fill="#62a8de" d="M 331.5,187.5 C 334.278,187.022 336.278,188.022 337.5,190.5C 296.512,228.077 255.012,265.077 213,301.5C 210.996,304.475 209.996,307.808 210,311.5C 208.421,323.798 207.254,336.132 206.5,348.5C 205.5,348.5 204.5,348.5 203.5,348.5C 198.166,329.331 192.332,310.331 186,291.5C 184.675,287.572 184.342,283.572 185,279.5C 233.982,248.934 282.815,218.267 331.5,187.5 Z"/></g>
</svg>
