<?xml version="1.0" encoding="UTF-8"?>
<!DOCTYPE svg PUBLIC "-//W3C//DTD SVG 1.1//EN" "http://www.w3.org/Graphics/SVG/1.1/DTD/svg11.dtd">
<svg xmlns="http://www.w3.org/2000/svg" version="1.1" width="512px" height="512px" style="shape-rendering:geometricPrecision; text-rendering:geometricPrecision; image-rendering:optimizeQuality; fill-rule:evenodd; clip-rule:evenodd" xmlns:xlink="http://www.w3.org/1999/xlink">
<g><path style="opacity:1" fill="#2f2f2f" d="M -0.5,-0.5 C 170.167,-0.5 340.833,-0.5 511.5,-0.5C 511.5,170.167 511.5,340.833 511.5,511.5C 340.833,511.5 170.167,511.5 -0.5,511.5C -0.5,340.833 -0.5,170.167 -0.5,-0.5 Z"/></g>
<g><path style="opacity:1" fill="#c2c2c2" d="M 412.5,237.5 C 413.166,246.485 413.499,255.485 413.5,264.5C 407.337,330.467 374.004,376.634 313.5,403C 242.998,426.956 182.831,411.456 133,356.5C 99.4637,312.823 89.4637,264.156 103,210.5C 120.339,157.827 155.173,122.327 207.5,104C 274.751,86.5119 331.584,103.345 378,154.5C 397.758,178.688 409.258,206.355 412.5,237.5 Z"/></g>
<g><path style="opacity:1" fill="#313131" d="M 240.5,126.5 C 242.486,143.802 243.153,161.468 242.5,179.5C 228.731,179.103 215.064,177.769 201.5,175.5C 208.252,154.093 221.252,137.76 240.5,126.5 Z"/></g>
<g><path style="opacity:1" fill="#303030" d="M 268.5,126.5 C 283.373,133.205 294.54,143.872 302,158.5C 305.068,163.964 307.568,169.631 309.5,175.5C 295.913,177.537 282.246,178.87 268.5,179.5C 268.5,161.833 268.5,144.167 268.5,126.5 Z"/></g>
<g><path style="opacity:1" fill="#333333" d="M 192.5,134.5 C 186.639,145.049 180.972,156.215 175.5,168C 168.891,167.263 162.558,165.43 156.5,162.5C 167.088,151.232 179.088,141.899 192.5,134.5 Z"/></g>
<g><path style="opacity:1" fill="#333333" d="M 317.5,134.5 C 330.943,141.652 343.11,150.652 354,161.5C 354.456,162.744 353.956,163.577 352.5,164C 346.514,165.607 340.514,167.107 334.5,168.5C 330.413,156.326 324.746,144.993 317.5,134.5 Z"/></g>
<g><path style="opacity:1" fill="#767676" d="M 369.5,185.5 C 370.947,184.115 371.947,184.448 372.5,186.5C 371.609,185.89 370.609,185.557 369.5,185.5 Z"/></g>
<g><path style="opacity:1" fill="#303030" d="M 167.5,195.5 C 166.076,197.515 165.41,199.848 165.5,202.5C 164.407,206.394 163.74,210.394 163.5,214.5C 162.111,219.269 161.444,224.269 161.5,229.5C 160.627,233.768 160.294,238.102 160.5,242.5C 147.167,242.5 133.833,242.5 120.5,242.5C 122.184,222.425 128.184,203.758 138.5,186.5C 139.167,186.167 139.833,185.833 140.5,185.5C 148.613,188.704 156.946,191.204 165.5,193C 166.756,193.417 167.423,194.25 167.5,195.5 Z"/></g>
<g><path style="opacity:1" fill="#303030" d="M 369.5,185.5 C 370.609,185.557 371.609,185.89 372.5,186.5C 382.703,203.778 388.703,222.445 390.5,242.5C 377.167,242.5 363.833,242.5 350.5,242.5C 350.706,238.102 350.373,233.768 349.5,229.5C 349.556,224.269 348.889,219.269 347.5,214.5C 347.026,207.657 345.693,200.99 343.5,194.5C 352.035,191.197 360.702,188.197 369.5,185.5 Z"/></g>
<g><path style="opacity:1" fill="#303030" d="M 192.5,200.5 C 209.034,203.478 225.701,205.145 242.5,205.5C 242.5,217.833 242.5,230.167 242.5,242.5C 223.833,242.5 205.167,242.5 186.5,242.5C 186.897,228.253 188.897,214.253 192.5,200.5 Z"/></g>
<g><path style="opacity:1" fill="#2f2f2f" d="M 312.5,200.5 C 314.5,200.5 316.5,200.5 318.5,200.5C 319.659,205.468 320.659,210.468 321.5,215.5C 321.866,223.385 322.866,231.051 324.5,238.5C 324.5,239.833 324.5,241.167 324.5,242.5C 305.833,242.5 287.167,242.5 268.5,242.5C 268.5,230.167 268.5,217.833 268.5,205.5C 275.186,205.473 281.852,205.139 288.5,204.5C 296.834,204.36 304.834,203.027 312.5,200.5 Z"/></g>
<g><path style="opacity:1" fill="#878787" d="M 167.5,195.5 C 167.59,198.152 166.924,200.485 165.5,202.5C 165.41,199.848 166.076,197.515 167.5,195.5 Z"/></g>
<g><path style="opacity:1" fill="#5d5d5d" d="M 312.5,200.5 C 304.834,203.027 296.834,204.36 288.5,204.5C 296.302,202.755 304.302,201.422 312.5,200.5 Z"/></g>
<g><path style="opacity:1" fill="#909090" d="M 163.5,214.5 C 163.556,219.731 162.889,224.731 161.5,229.5C 161.444,224.269 162.111,219.269 163.5,214.5 Z"/></g>
<g><path style="opacity:1" fill="#929292" d="M 347.5,214.5 C 348.889,219.269 349.556,224.269 349.5,229.5C 348.111,224.731 347.444,219.731 347.5,214.5 Z"/></g>
<g><path style="opacity:1" fill="#656565" d="M 321.5,215.5 C 323.321,222.926 324.321,230.592 324.5,238.5C 322.866,231.051 321.866,223.385 321.5,215.5 Z"/></g>
<g><path style="opacity:1" fill="#919191" d="M 412.5,237.5 C 413.931,242.933 414.598,248.599 414.5,254.5C 414.498,258.018 414.165,261.351 413.5,264.5C 413.499,255.485 413.166,246.485 412.5,237.5 Z"/></g>
<g><path style="opacity:1" fill="#303030" d="M 120.5,268.5 C 133.833,268.5 147.167,268.5 160.5,268.5C 161.361,284.723 163.694,300.723 167.5,316.5C 158.765,320.078 149.765,323.078 140.5,325.5C 138.551,324.293 137.051,322.627 136,320.5C 127.718,304.15 122.552,286.817 120.5,268.5 Z"/></g>
<g><path style="opacity:1" fill="#303030" d="M 186.5,268.5 C 205.167,268.5 223.833,268.5 242.5,268.5C 242.5,280.833 242.5,293.167 242.5,305.5C 225.767,306.508 209.101,308.175 192.5,310.5C 189.846,296.587 187.846,282.587 186.5,268.5 Z"/></g>
<g><path style="opacity:1" fill="#303030" d="M 268.5,268.5 C 287.167,268.5 305.833,268.5 324.5,268.5C 323.42,282.632 321.42,296.632 318.5,310.5C 301.849,308.669 285.183,307.002 268.5,305.5C 268.5,293.167 268.5,280.833 268.5,268.5 Z"/></g>
<g><path style="opacity:1" fill="#303030" d="M 386.5,292.5 C 385.129,294.936 384.129,297.603 383.5,300.5C 380.946,308.945 377.28,316.945 372.5,324.5C 370.579,325.641 368.579,325.808 366.5,325C 358.526,322.624 350.859,319.791 343.5,316.5C 347.306,300.723 349.639,284.723 350.5,268.5C 363.833,268.5 377.167,268.5 390.5,268.5C 389.808,276.603 388.475,284.603 386.5,292.5 Z"/></g>
<g><path style="opacity:1" fill="#8b8b8b" d="M 386.5,292.5 C 386.655,295.716 385.655,298.383 383.5,300.5C 384.129,297.603 385.129,294.936 386.5,292.5 Z"/></g>
<g><path style="opacity:1" fill="#313131" d="M 230.5,331.5 C 234.5,331.5 238.5,331.5 242.5,331.5C 242.667,349.17 242.5,366.836 242,384.5C 227.447,377.615 216.447,366.948 209,352.5C 206.227,347.287 203.727,341.954 201.5,336.5C 211.22,334.416 220.887,332.749 230.5,331.5 Z"/></g>
<g><path style="opacity:1" fill="#313131" d="M 268.5,331.5 C 282.262,332.452 295.929,334.119 309.5,336.5C 304.042,351.261 295.709,364.094 284.5,375C 279.901,378.759 274.901,381.926 269.5,384.5C 268.5,366.846 268.167,349.179 268.5,331.5 Z"/></g>
<g><path style="opacity:1" fill="#343434" d="M 171.5,342.5 C 173.167,342.5 174.833,342.5 176.5,342.5C 180.211,353.923 185.545,364.589 192.5,374.5C 192.167,374.833 191.833,375.167 191.5,375.5C 178.725,368.563 167.225,359.896 157,349.5C 156.409,348.517 156.743,347.85 158,347.5C 162.858,346.495 167.358,344.829 171.5,342.5 Z"/></g>
<g><path style="opacity:1" fill="#333333" d="M 334.5,342.5 C 341.25,344.188 347.917,346.188 354.5,348.5C 344.284,359.382 332.618,368.382 319.5,375.5C 319.167,375.167 318.833,374.833 318.5,374.5C 325.432,364.637 330.765,353.97 334.5,342.5 Z"/></g>
</svg>
